<svg xmlns="http://www.w3.org/2000/svg" version="1.1" xmlns:xlink="http://www.w3.org/1999/xlink" width="500px" height="500px"><svg version="1.1" id="SvgjsSvg1094" xmlns="http://www.w3.org/2000/svg" xmlns:xlink="http://www.w3.org/1999/xlink" x="0px" y="0px" width="500px" height="500px" viewBox="0 0 500 500" style="enable-background:new 0 0 500 500;" xml:space="preserve">
<g>
	<path d="M334.59,18.42c7,2.66,13.9,1.33,20.54,2.42c17.74,2.92,34.62,7.99,51.43,16.81c-5.36,3.11-10.26,4.79-14.96,6.97
		c-21.53,9.99-44.39,16.79-65.41,28.02c-10.88,5.81-20.53,13.02-29.55,21.26c-32.63,29.79-51.66,67.68-65.21,108.93
		c-6.61,20.13-13.35,40.25-21,59.99c-12.57,32.42-35.49,57.09-61.4,79.36c-17.91,15.4-36.5,29.91-56.51,42.46
		c-14.51,9.1-28.84,18.56-45.18,24.47c-5.47,1.98-7.95,0.79-10.32-3.95c-9.83-19.64-15.85-40.29-17.64-62.49
		c-0.5-9.76-0.5-19.29-0.5-29.43c1.42-13.61,1.98-26.68,5.3-39.48c6.97-26.88,17.08-52.28,30.78-76.59
		c17.66-31.33,39.41-59.28,64.95-84.31c23.83-23.35,50.46-42.96,79.71-59.34c29.58-16.57,60.81-27.58,94.08-33.17
		c8.28-1.39,16.74-1.32,25.54-1.64C324.42,18.42,329.21,18.42,334.59,18.42z"></path>
	<path d="M269.31,460.17c-17.63,8.3-35.8,13.16-54.3,17.12c-19.53,4.18-39.34,5.12-59.07,3.63c-23.27-1.76-45.77-7.09-65.6-20.46
		c-4.22-2.84-9.02-4.83-13.06-9.03c11.96-5.82,23.38-11.95,34.4-18.81c29.16-18.17,56.75-38.54,81.82-61.96
		c25.32-23.65,46.87-50.18,61.25-82.47c11.37-25.52,18.25-52.41,27.81-78.44c9.33-25.41,21.27-49.39,39.52-69.72
		c14.44-16.08,32.71-26.18,52.81-33.53c14.32-5.24,28.87-9.99,42.57-16.78c10.07-4.99,20.24-9.8,30.17-16.19
		c12.32,14.92,21.64,31.12,26.72,49.59c11.89,43.25,7.26,85.67-7.13,127.42c-9.32,27.04-22.04,52.61-38.2,76.11
		c-15.04,21.88-31.99,42.3-51.27,60.88c-15.98,15.41-33.32,29-51.22,41.8C309.02,441.86,289.65,451.53,269.31,460.17z"></path>
</g>
</svg><style>@media (prefers-color-scheme: light) { :root { filter: none; } }
@media (prefers-color-scheme: dark) { :root { filter: invert(100%); } }
</style></svg>